# 3ds Max Wavefront OBJ Exporter v0.97b - (c)2007 guruware
# File Created: 29.01.2016 00:16:53

#
# object Box001
#

v  -0.500000 0.000000 0.100000
v  0.500000 0.000000 -0.100000
v  0.500000 0.000000 0.100000
v  -0.500000 0.000000 -0.100000
v  -0.500000 0.600000 0.100000
v  0.500000 0.600000 -0.100000
v  -0.500000 0.600000 -0.100000
v  0.500000 0.600000 0.100000
# 8 vertices

vn 0.000000 -1.000000 -0.000000
vn 0.000000 1.000000 -0.000000
vn 0.000000 0.000000 1.000000
vn 1.000000 0.000000 -0.000000
vn 0.000000 0.000000 -1.000000
vn -1.000000 0.000000 -0.000000
# 6 vertex normals

vt 1.000000 1.000000 0.000000
vt 0.000000 2.000000 0.000000
vt 0.000000 1.000000 0.000000
vt 1.000000 2.000000 0.000000
# 4 texture coords

g Box001
s 1
f 1/1/1 2/2/1 3/3/1 
f 1/1/1 4/4/1 2/2/1 
f 5/3/2 6/4/2 7/2/2 
f 5/3/2 8/1/2 6/4/2 
f 1/3/3 3/1/3 5/2/3 
f 3/1/3 8/4/3 5/2/3 
f 3/3/4 6/4/4 8/2/4 
f 3/3/4 2/1/4 6/4/4 
f 2/3/5 7/4/5 6/2/5 
f 2/3/5 4/1/5 7/4/5 
f 4/3/6 5/4/6 7/2/6 
f 4/3/6 1/1/6 5/4/6 
# 0 polygons - 12 triangles

