# 3ds Max Wavefront OBJ Exporter v0.97b - (c)2007 guruware
# File Created: 08.05.2016 17:12:10

#
# object Sphere001
#

v  0.305535 -0.906789 -0.305535
v  0.325875 -0.771166 -0.566668
v  0.566669 -0.771166 -0.325875
v  0.325875 -0.566669 -0.771166
v  0.587905 -0.587905 -0.587905
v  0.305535 -0.305535 -0.906789
v  0.566669 -0.325875 -0.771166
v  0.771166 -0.566669 -0.325875
v  0.771166 -0.325875 -0.566668
v  0.906789 -0.305535 -0.305535
v  0.000000 -0.996952 0.000000
v  0.000000 -0.961305 -0.264857
v  0.264857 -0.961305 0.000000
v  0.000000 0.000000 -0.996952
v  0.264857 0.000000 -0.961305
v  0.000000 -0.264857 -0.961305
v  0.996952 0.000000 0.000000
v  0.961305 -0.264857 0.000000
v  0.961305 0.000000 -0.264857
v  0.000000 -0.860728 -0.502960
v  0.502960 0.000000 -0.860728
v  0.860728 -0.502960 0.000000
v  0.000000 -0.704765 -0.704765
v  0.704765 0.000000 -0.704765
v  0.704765 -0.704765 0.000000
v  0.000000 -0.502960 -0.860728
v  0.860728 0.000000 -0.502960
v  0.502960 -0.860728 0.000000
v  0.305535 -0.906789 0.305535
v  0.566668 -0.771166 0.325875
v  0.325875 -0.771166 0.566669
v  0.771166 -0.566669 0.325875
v  0.587905 -0.587905 0.587905
v  0.906789 -0.305535 0.305535
v  0.771166 -0.325875 0.566669
v  0.325875 -0.566669 0.771166
v  0.566668 -0.325875 0.771166
v  0.305535 -0.305535 0.906789
v  0.000000 -0.961305 0.264857
v  0.961305 0.000000 0.264857
v  0.000000 0.000000 0.996952
v  0.000000 -0.264857 0.961305
v  0.264857 0.000000 0.961305
v  0.860728 0.000000 0.502960
v  0.000000 -0.502960 0.860728
v  0.704765 0.000000 0.704765
v  0.000000 -0.704765 0.704765
v  0.502960 0.000000 0.860728
v  0.000000 -0.860728 0.502960
v  -0.305535 -0.906789 0.305535
v  -0.325875 -0.771166 0.566668
v  -0.566669 -0.771166 0.325875
v  -0.325875 -0.566669 0.771166
v  -0.587905 -0.587905 0.587905
v  -0.305535 -0.305535 0.906789
v  -0.566669 -0.325875 0.771166
v  -0.771166 -0.566669 0.325875
v  -0.771166 -0.325875 0.566668
v  -0.906789 -0.305535 0.305535
v  -0.264857 -0.961305 0.000000
v  -0.264857 0.000000 0.961305
v  -0.996952 0.000000 0.000000
v  -0.961305 -0.264857 0.000000
v  -0.961305 0.000000 0.264857
v  -0.502960 0.000000 0.860728
v  -0.860728 -0.502960 0.000000
v  -0.704765 0.000000 0.704765
v  -0.704765 -0.704765 0.000000
v  -0.860728 0.000000 0.502960
v  -0.502960 -0.860728 0.000000
v  -0.305535 -0.906789 -0.305535
v  -0.566668 -0.771166 -0.325875
v  -0.325875 -0.771166 -0.566669
v  -0.771166 -0.566669 -0.325875
v  -0.587905 -0.587905 -0.587905
v  -0.906789 -0.305535 -0.305535
v  -0.771166 -0.325875 -0.566669
v  -0.325875 -0.566669 -0.771166
v  -0.566668 -0.325875 -0.771166
v  -0.305535 -0.305535 -0.906789
v  -0.961305 0.000000 -0.264857
v  -0.264857 0.000000 -0.961305
v  -0.860728 0.000000 -0.502960
v  -0.704765 0.000000 -0.704765
v  -0.502960 0.000000 -0.860728
v  0.305535 0.906789 -0.305535
v  0.566668 0.771166 -0.325875
v  0.325875 0.771166 -0.566669
v  0.771166 0.566669 -0.325875
v  0.587905 0.587905 -0.587905
v  0.906789 0.305535 -0.305535
v  0.771166 0.325875 -0.566669
v  0.325875 0.566669 -0.771166
v  0.566668 0.325875 -0.771166
v  0.305535 0.305535 -0.906789
v  0.000000 0.996952 0.000000
v  0.264857 0.961305 0.000000
v  0.000000 0.961305 -0.264857
v  0.961305 0.264857 0.000000
v  0.000000 0.264857 -0.961305
v  0.502960 0.860728 0.000000
v  0.000000 0.502960 -0.860728
v  0.704765 0.704765 0.000000
v  0.000000 0.704765 -0.704765
v  0.860728 0.502960 0.000000
v  0.000000 0.860728 -0.502960
v  0.305535 0.906789 0.305535
v  0.325875 0.771166 0.566668
v  0.566669 0.771166 0.325875
v  0.325875 0.566669 0.771166
v  0.587905 0.587905 0.587905
v  0.305535 0.305535 0.906789
v  0.566669 0.325875 0.771166
v  0.771166 0.566669 0.325875
v  0.771166 0.325875 0.566668
v  0.906789 0.305535 0.305535
v  0.000000 0.961305 0.264857
v  0.000000 0.264857 0.961305
v  0.000000 0.860728 0.502960
v  0.000000 0.704765 0.704765
v  0.000000 0.502960 0.860728
v  -0.305535 0.906789 0.305535
v  -0.566668 0.771166 0.325875
v  -0.325875 0.771166 0.566669
v  -0.771166 0.566669 0.325875
v  -0.587905 0.587905 0.587905
v  -0.906789 0.305535 0.305535
v  -0.771166 0.325875 0.566669
v  -0.325875 0.566669 0.771166
v  -0.566668 0.325875 0.771166
v  -0.305535 0.305535 0.906789
v  -0.264857 0.961305 0.000000
v  -0.961305 0.264857 0.000000
v  -0.502960 0.860728 0.000000
v  -0.704765 0.704765 0.000000
v  -0.860728 0.502960 0.000000
v  -0.305535 0.906789 -0.305535
v  -0.325875 0.771166 -0.566668
v  -0.566669 0.771166 -0.325875
v  -0.325875 0.566669 -0.771166
v  -0.587905 0.587905 -0.587905
v  -0.305535 0.305535 -0.906789
v  -0.566669 0.325875 -0.771166
v  -0.771166 0.566669 -0.325875
v  -0.771166 0.325875 -0.566668
v  -0.906789 0.305535 -0.305535
# 146 vertices

vn 0.282437 -0.916765 -0.282438
vn 0.287929 -0.778314 -0.557965
vn 0.557965 -0.778314 -0.287929
vn 0.287929 -0.557965 -0.778313
vn 0.577350 -0.577350 -0.577350
vn 0.282438 -0.282437 -0.916765
vn 0.557965 -0.287929 -0.778313
vn 0.778314 -0.557965 -0.287929
vn 0.778314 -0.287929 -0.557965
vn 0.916765 -0.282438 -0.282437
vn 0.000000 -1.000000 0.000000
vn 0.000000 -0.966647 -0.256113
vn 0.256113 -0.966647 0.000000
vn 0.000000 0.000000 -1.000000
vn 0.256113 0.000000 -0.966647
vn 0.000000 -0.256113 -0.966647
vn 1.000000 0.000000 0.000000
vn 0.966647 -0.256113 0.000000
vn 0.966647 0.000000 -0.256113
vn 0.000000 -0.866175 -0.499741
vn 0.499741 0.000000 -0.866175
vn 0.866175 -0.499741 0.000000
vn 0.000000 -0.707107 -0.707107
vn 0.707107 0.000000 -0.707107
vn 0.707107 -0.707107 0.000000
vn 0.000000 -0.499741 -0.866175
vn 0.866175 0.000000 -0.499741
vn 0.499741 -0.866175 0.000000
vn 0.282438 -0.916765 0.282438
vn 0.557965 -0.778314 0.287929
vn 0.287929 -0.778314 0.557965
vn 0.778313 -0.557965 0.287929
vn 0.577350 -0.577350 0.577350
vn 0.916765 -0.282437 0.282437
vn 0.778313 -0.287929 0.557965
vn 0.287929 -0.557965 0.778314
vn 0.557965 -0.287929 0.778314
vn 0.282437 -0.282438 0.916765
vn 0.000000 -0.966647 0.256113
vn 0.966647 0.000000 0.256113
vn 0.000000 0.000000 1.000000
vn 0.000000 -0.256113 0.966647
vn 0.256113 0.000000 0.966647
vn 0.866175 0.000000 0.499741
vn 0.000000 -0.499741 0.866175
vn 0.707107 0.000000 0.707107
vn 0.000000 -0.707107 0.707107
vn 0.499741 0.000000 0.866175
vn 0.000000 -0.866175 0.499741
vn -0.282438 -0.916765 0.282438
vn -0.287929 -0.778314 0.557965
vn -0.557965 -0.778314 0.287929
vn -0.287929 -0.557965 0.778313
vn -0.577350 -0.577350 0.577350
vn -0.282437 -0.282437 0.916765
vn -0.557965 -0.287929 0.778313
vn -0.778314 -0.557965 0.287929
vn -0.778314 -0.287929 0.557965
vn -0.916765 -0.282438 0.282437
vn -0.256113 -0.966647 0.000000
vn -0.256113 0.000000 0.966647
vn -1.000000 0.000000 0.000000
vn -0.966647 -0.256113 0.000000
vn -0.966647 0.000000 0.256113
vn -0.499741 0.000000 0.866175
vn -0.866175 -0.499741 0.000000
vn -0.707107 0.000000 0.707107
vn -0.707107 -0.707107 0.000000
vn -0.866175 0.000000 0.499741
vn -0.499741 -0.866175 0.000000
vn -0.282437 -0.916765 -0.282438
vn -0.557965 -0.778314 -0.287929
vn -0.287929 -0.778314 -0.557965
vn -0.778313 -0.557965 -0.287929
vn -0.577350 -0.577350 -0.577350
vn -0.916765 -0.282437 -0.282437
vn -0.778313 -0.287929 -0.557965
vn -0.287929 -0.557965 -0.778314
vn -0.557965 -0.287929 -0.778314
vn -0.282438 -0.282438 -0.916765
vn -0.966647 0.000000 -0.256113
vn -0.256113 0.000000 -0.966647
vn -0.866175 0.000000 -0.499741
vn -0.707107 0.000000 -0.707107
vn -0.499741 0.000000 -0.866175
vn 0.282438 0.916765 -0.282437
vn 0.557965 0.778314 -0.287929
vn 0.287929 0.778314 -0.557965
vn 0.778313 0.557965 -0.287929
vn 0.577350 0.577350 -0.577350
vn 0.916765 0.282437 -0.282438
vn 0.778313 0.287929 -0.557965
vn 0.287929 0.557965 -0.778314
vn 0.557965 0.287928 -0.778314
vn 0.282438 0.282437 -0.916765
vn 0.000000 1.000000 0.000000
vn 0.256113 0.966647 0.000000
vn 0.000000 0.966647 -0.256113
vn 0.966647 0.256113 0.000000
vn 0.000000 0.256113 -0.966647
vn 0.499741 0.866175 0.000000
vn 0.000000 0.499741 -0.866175
vn 0.707107 0.707107 0.000000
vn 0.000000 0.707107 -0.707107
vn 0.866175 0.499741 0.000000
vn 0.000000 0.866175 -0.499741
vn 0.282437 0.916765 0.282438
vn 0.287929 0.778314 0.557965
vn 0.557965 0.778314 0.287929
vn 0.287929 0.557965 0.778313
vn 0.577350 0.577350 0.577350
vn 0.282438 0.282437 0.916765
vn 0.557965 0.287929 0.778313
vn 0.778314 0.557965 0.287929
vn 0.778314 0.287928 0.557965
vn 0.916765 0.282437 0.282438
vn 0.000000 0.966647 0.256113
vn 0.000000 0.256113 0.966647
vn 0.000000 0.866175 0.499741
vn 0.000000 0.707107 0.707107
vn 0.000000 0.499741 0.866175
vn -0.282438 0.916765 0.282437
vn -0.557965 0.778314 0.287929
vn -0.287929 0.778314 0.557965
vn -0.778313 0.557965 0.287929
vn -0.577350 0.577350 0.577350
vn -0.916765 0.282437 0.282438
vn -0.778313 0.287929 0.557965
vn -0.287929 0.557965 0.778314
vn -0.557965 0.287928 0.778314
vn -0.282438 0.282437 0.916765
vn -0.256113 0.966647 0.000000
vn -0.966647 0.256113 0.000000
vn -0.499741 0.866175 0.000000
vn -0.707107 0.707107 0.000000
vn -0.866175 0.499741 0.000000
vn -0.282438 0.916765 -0.282437
vn -0.287929 0.778314 -0.557965
vn -0.557965 0.778314 -0.287929
vn -0.287929 0.557965 -0.778313
vn -0.577350 0.577350 -0.577350
vn -0.282437 0.282438 -0.916765
vn -0.557965 0.287929 -0.778313
vn -0.778314 0.557965 -0.287929
vn -0.778314 0.287928 -0.557965
vn -0.916765 0.282437 -0.282438
# 146 vertex normals

vt 0.875000 0.833333 0.000000
vt 0.854167 0.750000 0.000000
vt 0.895833 0.750000 0.000000
vt 0.833333 0.666667 0.000000
vt 0.875000 0.666667 0.000000
vt 0.812500 0.583333 0.000000
vt 0.854167 0.583333 0.000000
vt 0.916667 0.666667 0.000000
vt 0.895833 0.583333 0.000000
vt 0.937500 0.583333 0.000000
vt 0.875000 1.000000 0.000000
vt 0.854167 0.916667 0.000000
vt 0.895833 0.916667 0.000000
vt 0.750000 0.500000 0.000000
vt 0.791667 0.500000 0.000000
vt 0.770833 0.583333 0.000000
vt 1.000000 0.500000 0.000000
vt 0.979167 0.583333 0.000000
vt 0.958333 0.500000 0.000000
vt 0.833333 0.833333 0.000000
vt 0.833333 0.500000 0.000000
vt 0.958333 0.666667 0.000000
vt 0.812500 0.750000 0.000000
vt 0.875000 0.500000 0.000000
vt 0.937500 0.750000 0.000000
vt 0.791667 0.666667 0.000000
vt 0.916667 0.500000 0.000000
vt 0.916667 0.833333 0.000000
vt 0.125000 0.833333 0.000000
vt 0.104167 0.750000 0.000000
vt 0.145833 0.750000 0.000000
vt 0.083333 0.666667 0.000000
vt 0.125000 0.666667 0.000000
vt 0.062500 0.583333 0.000000
vt 0.104167 0.583333 0.000000
vt 0.166667 0.666667 0.000000
vt 0.145833 0.583333 0.000000
vt 0.187500 0.583333 0.000000
vt 0.125000 1.000000 0.000000
vt 0.104167 0.916667 0.000000
vt 0.145833 0.916667 0.000000
vt 0.000000 0.500000 0.000000
vt 0.041667 0.500000 0.000000
vt 0.020833 0.583333 0.000000
vt 0.250000 0.500000 0.000000
vt 0.229167 0.583333 0.000000
vt 0.208333 0.500000 0.000000
vt 0.083333 0.833333 0.000000
vt 0.083333 0.500000 0.000000
vt 0.208333 0.666667 0.000000
vt 0.062500 0.750000 0.000000
vt 0.125000 0.500000 0.000000
vt 0.187500 0.750000 0.000000
vt 0.041667 0.666667 0.000000
vt 0.166667 0.500000 0.000000
vt 0.166667 0.833333 0.000000
vt 0.375000 0.833333 0.000000
vt 0.354167 0.750000 0.000000
vt 0.395833 0.750000 0.000000
vt 0.333333 0.666667 0.000000
vt 0.375000 0.666667 0.000000
vt 0.312500 0.583333 0.000000
vt 0.354167 0.583333 0.000000
vt 0.416667 0.666667 0.000000
vt 0.395833 0.583333 0.000000
vt 0.437500 0.583333 0.000000
vt 0.375000 1.000000 0.000000
vt 0.354167 0.916667 0.000000
vt 0.395833 0.916667 0.000000
vt 0.291667 0.500000 0.000000
vt 0.270833 0.583333 0.000000
vt 0.500000 0.500000 0.000000
vt 0.479167 0.583333 0.000000
vt 0.458333 0.500000 0.000000
vt 0.333333 0.833333 0.000000
vt 0.333333 0.500000 0.000000
vt 0.458333 0.666667 0.000000
vt 0.312500 0.750000 0.000000
vt 0.375000 0.500000 0.000000
vt 0.437500 0.750000 0.000000
vt 0.291667 0.666667 0.000000
vt 0.416667 0.500000 0.000000
vt 0.416667 0.833333 0.000000
vt 0.625000 0.833333 0.000000
vt 0.604167 0.750000 0.000000
vt 0.645833 0.750000 0.000000
vt 0.583333 0.666667 0.000000
vt 0.625000 0.666667 0.000000
vt 0.562500 0.583333 0.000000
vt 0.604167 0.583333 0.000000
vt 0.666667 0.666667 0.000000
vt 0.645833 0.583333 0.000000
vt 0.687500 0.583333 0.000000
vt 0.625000 1.000000 0.000000
vt 0.604167 0.916667 0.000000
vt 0.645833 0.916667 0.000000
vt 0.541667 0.500000 0.000000
vt 0.520833 0.583333 0.000000
vt 0.729167 0.583333 0.000000
vt 0.708333 0.500000 0.000000
vt 0.583333 0.833333 0.000000
vt 0.583333 0.500000 0.000000
vt 0.708333 0.666667 0.000000
vt 0.562500 0.750000 0.000000
vt 0.625000 0.500000 0.000000
vt 0.687500 0.750000 0.000000
vt 0.541667 0.666667 0.000000
vt 0.666667 0.500000 0.000000
vt 0.666667 0.833333 0.000000
vt 0.875000 0.166667 0.000000
vt 0.895833 0.250000 0.000000
vt 0.854167 0.250000 0.000000
vt 0.916667 0.333333 0.000000
vt 0.875000 0.333333 0.000000
vt 0.937500 0.416667 0.000000
vt 0.895833 0.416667 0.000000
vt 0.833333 0.333333 0.000000
vt 0.854167 0.416667 0.000000
vt 0.812500 0.416667 0.000000
vt 0.875000 0.000000 0.000000
vt 0.895833 0.083333 0.000000
vt 0.854167 0.083333 0.000000
vt 0.979167 0.416667 0.000000
vt 0.770833 0.416667 0.000000
vt 0.916667 0.166667 0.000000
vt 0.791667 0.333333 0.000000
vt 0.937500 0.250000 0.000000
vt 0.812500 0.250000 0.000000
vt 0.958333 0.333333 0.000000
vt 0.833333 0.166667 0.000000
vt 0.125000 0.166667 0.000000
vt 0.145833 0.250000 0.000000
vt 0.104167 0.250000 0.000000
vt 0.166667 0.333333 0.000000
vt 0.125000 0.333333 0.000000
vt 0.187500 0.416667 0.000000
vt 0.145833 0.416667 0.000000
vt 0.083333 0.333333 0.000000
vt 0.104167 0.416667 0.000000
vt 0.062500 0.416667 0.000000
vt 0.125000 0.000000 0.000000
vt 0.145833 0.083333 0.000000
vt 0.104167 0.083333 0.000000
vt 0.229167 0.416667 0.000000
vt 0.020833 0.416667 0.000000
vt 0.166667 0.166667 0.000000
vt 0.041667 0.333333 0.000000
vt 0.187500 0.250000 0.000000
vt 0.062500 0.250000 0.000000
vt 0.208333 0.333333 0.000000
vt 0.083333 0.166667 0.000000
vt 0.375000 0.166667 0.000000
vt 0.395833 0.250000 0.000000
vt 0.354167 0.250000 0.000000
vt 0.416667 0.333333 0.000000
vt 0.375000 0.333333 0.000000
vt 0.437500 0.416667 0.000000
vt 0.395833 0.416667 0.000000
vt 0.333333 0.333333 0.000000
vt 0.354167 0.416667 0.000000
vt 0.312500 0.416667 0.000000
vt 0.375000 0.000000 0.000000
vt 0.395833 0.083333 0.000000
vt 0.354167 0.083333 0.000000
vt 0.479167 0.416667 0.000000
vt 0.270833 0.416667 0.000000
vt 0.416667 0.166667 0.000000
vt 0.291667 0.333333 0.000000
vt 0.437500 0.250000 0.000000
vt 0.312500 0.250000 0.000000
vt 0.458333 0.333333 0.000000
vt 0.333333 0.166667 0.000000
vt 0.625000 0.166667 0.000000
vt 0.645833 0.250000 0.000000
vt 0.604167 0.250000 0.000000
vt 0.666667 0.333333 0.000000
vt 0.625000 0.333333 0.000000
vt 0.687500 0.416667 0.000000
vt 0.645833 0.416667 0.000000
vt 0.583333 0.333333 0.000000
vt 0.604167 0.416667 0.000000
vt 0.562500 0.416667 0.000000
vt 0.625000 0.000000 0.000000
vt 0.645833 0.083333 0.000000
vt 0.604167 0.083333 0.000000
vt 0.729167 0.416667 0.000000
vt 0.520833 0.416667 0.000000
vt 0.666667 0.166667 0.000000
vt 0.541667 0.333333 0.000000
vt 0.687500 0.250000 0.000000
vt 0.562500 0.250000 0.000000
vt 0.708333 0.333333 0.000000
vt 0.583333 0.166667 0.000000
# 193 texture coords

g Sphere001
f 1/1/1 2/2/2 3/3/3 
f 2/2/2 4/4/4 5/5/5 
f 4/4/4 6/6/6 7/7/7 
f 2/2/2 5/5/5 3/3/3 
f 4/4/4 7/7/7 5/5/5 
f 3/3/3 5/5/5 8/8/8 
f 5/5/5 7/7/7 9/9/9 
f 5/5/5 9/9/9 8/8/8 
f 8/8/8 9/9/9 10/10/10 
f 11/11/11 12/12/12 13/13/13 
f 14/14/14 15/15/15 16/16/16 
f 17/17/17 18/18/18 19/19/19 
f 12/12/12 1/1/1 13/13/13 
f 15/15/15 6/6/6 16/16/16 
f 18/18/18 10/10/10 19/19/19 
f 12/12/12 20/20/20 1/1/1 
f 15/15/15 21/21/21 6/6/6 
f 18/18/18 22/22/22 10/10/10 
f 20/20/20 23/23/23 2/2/2 
f 21/21/21 24/24/24 7/7/7 
f 22/22/22 25/25/25 8/8/8 
f 23/23/23 26/26/26 4/4/4 
f 24/24/24 27/27/27 9/9/9 
f 25/25/25 28/28/28 3/3/3 
f 26/26/26 16/16/16 6/6/6 
f 27/27/27 19/19/19 10/10/10 
f 28/28/28 13/13/13 1/1/1 
f 20/20/20 2/2/2 1/1/1 
f 21/21/21 7/7/7 6/6/6 
f 22/22/22 8/8/8 10/10/10 
f 23/23/23 4/4/4 2/2/2 
f 24/24/24 9/9/9 7/7/7 
f 25/25/25 3/3/3 8/8/8 
f 26/26/26 6/6/6 4/4/4 
f 27/27/27 10/10/10 9/9/9 
f 28/28/28 1/1/1 3/3/3 
f 29/29/29 30/30/30 31/31/31 
f 30/30/30 32/32/32 33/33/33 
f 32/32/32 34/34/34 35/35/35 
f 30/30/30 33/33/33 31/31/31 
f 32/32/32 35/35/35 33/33/33 
f 31/31/31 33/33/33 36/36/36 
f 33/33/33 35/35/35 37/37/37 
f 33/33/33 37/37/37 36/36/36 
f 36/36/36 37/37/37 38/38/38 
f 11/39/11 13/40/13 39/41/39 
f 17/42/17 40/43/40 18/44/18 
f 41/45/41 42/46/42 43/47/43 
f 13/40/13 29/29/29 39/41/39 
f 40/43/40 34/34/34 18/44/18 
f 42/46/42 38/38/38 43/47/43 
f 13/40/13 28/48/28 29/29/29 
f 40/43/40 44/49/44 34/34/34 
f 42/46/42 45/50/45 38/38/38 
f 28/48/28 25/51/25 30/30/30 
f 44/49/44 46/52/46 35/35/35 
f 45/50/45 47/53/47 36/36/36 
f 25/51/25 22/54/22 32/32/32 
f 46/52/46 48/55/48 37/37/37 
f 47/53/47 49/56/49 31/31/31 
f 22/54/22 18/44/18 34/34/34 
f 48/55/48 43/47/43 38/38/38 
f 49/56/49 39/41/39 29/29/29 
f 28/48/28 30/30/30 29/29/29 
f 44/49/44 35/35/35 34/34/34 
f 45/50/45 36/36/36 38/38/38 
f 25/51/25 32/32/32 30/30/30 
f 46/52/46 37/37/37 35/35/35 
f 47/53/47 31/31/31 36/36/36 
f 22/54/22 34/34/34 32/32/32 
f 48/55/48 38/38/38 37/37/37 
f 49/56/49 29/29/29 31/31/31 
f 50/57/50 51/58/51 52/59/52 
f 51/58/51 53/60/53 54/61/54 
f 53/60/53 55/62/55 56/63/56 
f 51/58/51 54/61/54 52/59/52 
f 53/60/53 56/63/56 54/61/54 
f 52/59/52 54/61/54 57/64/57 
f 54/61/54 56/63/56 58/65/58 
f 54/61/54 58/65/58 57/64/57 
f 57/64/57 58/65/58 59/66/59 
f 11/67/11 39/68/39 60/69/60 
f 41/45/41 61/70/61 42/71/42 
f 62/72/62 63/73/63 64/74/64 
f 39/68/39 50/57/50 60/69/60 
f 61/70/61 55/62/55 42/71/42 
f 63/73/63 59/66/59 64/74/64 
f 39/68/39 49/75/49 50/57/50 
f 61/70/61 65/76/65 55/62/55 
f 63/73/63 66/77/66 59/66/59 
f 49/75/49 47/78/47 51/58/51 
f 65/76/65 67/79/67 56/63/56 
f 66/77/66 68/80/68 57/64/57 
f 47/78/47 45/81/45 53/60/53 
f 67/79/67 69/82/69 58/65/58 
f 68/80/68 70/83/70 52/59/52 
f 45/81/45 42/71/42 55/62/55 
f 69/82/69 64/74/64 59/66/59 
f 70/83/70 60/69/60 50/57/50 
f 49/75/49 51/58/51 50/57/50 
f 65/76/65 56/63/56 55/62/55 
f 66/77/66 57/64/57 59/66/59 
f 47/78/47 53/60/53 51/58/51 
f 67/79/67 58/65/58 56/63/56 
f 68/80/68 52/59/52 57/64/57 
f 45/81/45 55/62/55 53/60/53 
f 69/82/69 59/66/59 58/65/58 
f 70/83/70 50/57/50 52/59/52 
f 71/84/71 72/85/72 73/86/73 
f 72/85/72 74/87/74 75/88/75 
f 74/87/74 76/89/76 77/90/77 
f 72/85/72 75/88/75 73/86/73 
f 74/87/74 77/90/77 75/88/75 
f 73/86/73 75/88/75 78/91/78 
f 75/88/75 77/90/77 79/92/79 
f 75/88/75 79/92/79 78/91/78 
f 78/91/78 79/92/79 80/93/80 
f 11/94/11 60/95/60 12/96/12 
f 62/72/62 81/97/81 63/98/63 
f 14/14/14 16/99/16 82/100/82 
f 60/95/60 71/84/71 12/96/12 
f 81/97/81 76/89/76 63/98/63 
f 16/99/16 80/93/80 82/100/82 
f 60/95/60 70/101/70 71/84/71 
f 81/97/81 83/102/83 76/89/76 
f 16/99/16 26/103/26 80/93/80 
f 70/101/70 68/104/68 72/85/72 
f 83/102/83 84/105/84 77/90/77 
f 26/103/26 23/106/23 78/91/78 
f 68/104/68 66/107/66 74/87/74 
f 84/105/84 85/108/85 79/92/79 
f 23/106/23 20/109/20 73/86/73 
f 66/107/66 63/98/63 76/89/76 
f 85/108/85 82/100/82 80/93/80 
f 20/109/20 12/96/12 71/84/71 
f 70/101/70 72/85/72 71/84/71 
f 83/102/83 77/90/77 76/89/76 
f 26/103/26 78/91/78 80/93/80 
f 68/104/68 74/87/74 72/85/72 
f 84/105/84 79/92/79 77/90/77 
f 23/106/23 73/86/73 78/91/78 
f 66/107/66 76/89/76 74/87/74 
f 85/108/85 80/93/80 79/92/79 
f 20/109/20 71/84/71 73/86/73 
f 86/110/86 87/111/87 88/112/88 
f 87/111/87 89/113/89 90/114/90 
f 89/113/89 91/115/91 92/116/92 
f 87/111/87 90/114/90 88/112/88 
f 89/113/89 92/116/92 90/114/90 
f 88/112/88 90/114/90 93/117/93 
f 90/114/90 92/116/92 94/118/94 
f 90/114/90 94/118/94 93/117/93 
f 93/117/93 94/118/94 95/119/95 
f 96/120/96 97/121/97 98/122/98 
f 17/17/17 19/19/19 99/123/99 
f 14/14/14 100/124/100 15/15/15 
f 97/121/97 86/110/86 98/122/98 
f 19/19/19 91/115/91 99/123/99 
f 100/124/100 95/119/95 15/15/15 
f 97/121/97 101/125/101 86/110/86 
f 19/19/19 27/27/27 91/115/91 
f 100/124/100 102/126/102 95/119/95 
f 101/125/101 103/127/103 87/111/87 
f 27/27/27 24/24/24 92/116/92 
f 102/126/102 104/128/104 93/117/93 
f 103/127/103 105/129/105 89/113/89 
f 24/24/24 21/21/21 94/118/94 
f 104/128/104 106/130/106 88/112/88 
f 105/129/105 99/123/99 91/115/91 
f 21/21/21 15/15/15 95/119/95 
f 106/130/106 98/122/98 86/110/86 
f 101/125/101 87/111/87 86/110/86 
f 27/27/27 92/116/92 91/115/91 
f 102/126/102 93/117/93 95/119/95 
f 103/127/103 89/113/89 87/111/87 
f 24/24/24 94/118/94 92/116/92 
f 104/128/104 88/112/88 93/117/93 
f 105/129/105 91/115/91 89/113/89 
f 21/21/21 95/119/95 94/118/94 
f 106/130/106 86/110/86 88/112/88 
f 107/131/107 108/132/108 109/133/109 
f 108/132/108 110/134/110 111/135/111 
f 110/134/110 112/136/112 113/137/113 
f 108/132/108 111/135/111 109/133/109 
f 110/134/110 113/137/113 111/135/111 
f 109/133/109 111/135/111 114/138/114 
f 111/135/111 113/137/113 115/139/115 
f 111/135/111 115/139/115 114/138/114 
f 114/138/114 115/139/115 116/140/116 
f 96/141/96 117/142/117 97/143/97 
f 41/45/41 43/47/43 118/144/118 
f 17/42/17 99/145/99 40/43/40 
f 117/142/117 107/131/107 97/143/97 
f 43/47/43 112/136/112 118/144/118 
f 99/145/99 116/140/116 40/43/40 
f 117/142/117 119/146/119 107/131/107 
f 43/47/43 48/55/48 112/136/112 
f 99/145/99 105/147/105 116/140/116 
f 119/146/119 120/148/120 108/132/108 
f 48/55/48 46/52/46 113/137/113 
f 105/147/105 103/149/103 114/138/114 
f 120/148/120 121/150/121 110/134/110 
f 46/52/46 44/49/44 115/139/115 
f 103/149/103 101/151/101 109/133/109 
f 121/150/121 118/144/118 112/136/112 
f 44/49/44 40/43/40 116/140/116 
f 101/151/101 97/143/97 107/131/107 
f 119/146/119 108/132/108 107/131/107 
f 48/55/48 113/137/113 112/136/112 
f 105/147/105 114/138/114 116/140/116 
f 120/148/120 110/134/110 108/132/108 
f 46/52/46 115/139/115 113/137/113 
f 103/149/103 109/133/109 114/138/114 
f 121/150/121 112/136/112 110/134/110 
f 44/49/44 116/140/116 115/139/115 
f 101/151/101 107/131/107 109/133/109 
f 122/152/122 123/153/123 124/154/124 
f 123/153/123 125/155/125 126/156/126 
f 125/155/125 127/157/127 128/158/128 
f 123/153/123 126/156/126 124/154/124 
f 125/155/125 128/158/128 126/156/126 
f 124/154/124 126/156/126 129/159/129 
f 126/156/126 128/158/128 130/160/130 
f 126/156/126 130/160/130 129/159/129 
f 129/159/129 130/160/130 131/161/131 
f 96/162/96 132/163/132 117/164/117 
f 62/72/62 64/74/64 133/165/133 
f 41/45/41 118/166/118 61/70/61 
f 132/163/132 122/152/122 117/164/117 
f 64/74/64 127/157/127 133/165/133 
f 118/166/118 131/161/131 61/70/61 
f 132/163/132 134/167/134 122/152/122 
f 64/74/64 69/82/69 127/157/127 
f 118/166/118 121/168/121 131/161/131 
f 134/167/134 135/169/135 123/153/123 
f 69/82/69 67/79/67 128/158/128 
f 121/168/121 120/170/120 129/159/129 
f 135/169/135 136/171/136 125/155/125 
f 67/79/67 65/76/65 130/160/130 
f 120/170/120 119/172/119 124/154/124 
f 136/171/136 133/165/133 127/157/127 
f 65/76/65 61/70/61 131/161/131 
f 119/172/119 117/164/117 122/152/122 
f 134/167/134 123/153/123 122/152/122 
f 69/82/69 128/158/128 127/157/127 
f 121/168/121 129/159/129 131/161/131 
f 135/169/135 125/155/125 123/153/123 
f 67/79/67 130/160/130 128/158/128 
f 120/170/120 124/154/124 129/159/129 
f 136/171/136 127/157/127 125/155/125 
f 65/76/65 131/161/131 130/160/130 
f 119/172/119 122/152/122 124/154/124 
f 137/173/137 138/174/138 139/175/139 
f 138/174/138 140/176/140 141/177/141 
f 140/176/140 142/178/142 143/179/143 
f 138/174/138 141/177/141 139/175/139 
f 140/176/140 143/179/143 141/177/141 
f 139/175/139 141/177/141 144/180/144 
f 141/177/141 143/179/143 145/181/145 
f 141/177/141 145/181/145 144/180/144 
f 144/180/144 145/181/145 146/182/146 
f 96/183/96 98/184/98 132/185/132 
f 14/14/14 82/100/82 100/186/100 
f 62/72/62 133/187/133 81/97/81 
f 98/184/98 137/173/137 132/185/132 
f 82/100/82 142/178/142 100/186/100 
f 133/187/133 146/182/146 81/97/81 
f 98/184/98 106/188/106 137/173/137 
f 82/100/82 85/108/85 142/178/142 
f 133/187/133 136/189/136 146/182/146 
f 106/188/106 104/190/104 138/174/138 
f 85/108/85 84/105/84 143/179/143 
f 136/189/136 135/191/135 144/180/144 
f 104/190/104 102/192/102 140/176/140 
f 84/105/84 83/102/83 145/181/145 
f 135/191/135 134/193/134 139/175/139 
f 102/192/102 100/186/100 142/178/142 
f 83/102/83 81/97/81 146/182/146 
f 134/193/134 132/185/132 137/173/137 
f 106/188/106 138/174/138 137/173/137 
f 85/108/85 143/179/143 142/178/142 
f 136/189/136 144/180/144 146/182/146 
f 104/190/104 140/176/140 138/174/138 
f 84/105/84 145/181/145 143/179/143 
f 135/191/135 139/175/139 144/180/144 
f 102/192/102 142/178/142 140/176/140 
f 83/102/83 146/182/146 145/181/145 
f 134/193/134 137/173/137 139/175/139 
# 288 faces

