# 3ds Max Wavefront OBJ Exporter v0.97b - (c)2007 guruware
# File Created: 22.05.2016 19:31:25

#
# object default
#

v  0.000000 -1.000581 -1.000000
v  0.000002 0.999419 -1.000000
v  0.195092 0.999419 -0.980785
v  0.195090 -1.000581 -0.980785
v  0.382685 0.999419 -0.923879
v  0.382683 -1.000581 -0.923880
v  0.555572 0.999419 -0.831469
v  0.555570 -1.000581 -0.831470
v  0.707108 0.999419 -0.707105
v  0.707107 -1.000581 -0.707107
v  0.831471 0.999419 -0.555569
v  0.831470 -1.000581 -0.555570
v  0.923880 0.999419 -0.382682
v  0.923880 -1.000581 -0.382683
v  0.980786 0.999419 -0.195088
v  0.980785 -1.000581 -0.195090
v  1.000000 0.999419 0.000002
v  1.000000 -1.000581 -0.000000
v  0.980785 0.999419 0.195092
v  0.980785 -1.000581 0.195090
v  0.923879 0.999419 0.382685
v  0.923880 -1.000581 0.382683
v  0.831469 0.999419 0.555571
v  0.831470 -1.000581 0.555570
v  0.707106 0.999419 0.707107
v  0.707107 -1.000581 0.707107
v  0.555570 0.999419 0.831470
v  0.555570 -1.000581 0.831470
v  0.382684 0.999419 0.923879
v  0.382683 -1.000581 0.923880
v  0.195091 0.999419 0.980785
v  0.195090 -1.000581 0.980785
v  0.000001 0.999419 1.000000
v  0.000000 -1.000581 1.000000
v  -0.195089 0.999419 0.980785
v  -0.195091 -1.000581 0.980785
v  -0.382682 0.999419 0.923880
v  -0.382684 -1.000581 0.923879
v  -0.555568 0.999419 0.831471
v  -0.555571 -1.000581 0.831469
v  -0.707105 0.999419 0.707108
v  -0.707107 -1.000581 0.707106
v  -0.831468 0.999419 0.555573
v  -0.831470 -1.000581 0.555570
v  -0.923878 0.999419 0.382686
v  -0.923880 -1.000581 0.382683
v  -0.980785 0.999419 0.195094
v  -0.980785 -1.000581 0.195089
v  -1.000000 0.999419 0.000004
v  -1.000000 -1.000581 -0.000001
v  -0.980786 0.999419 -0.195086
v  -0.980785 -1.000581 -0.195091
v  -0.923881 0.999419 -0.382679
v  -0.923879 -1.000581 -0.382684
v  -0.831473 0.999419 -0.555566
v  -0.831469 -1.000581 -0.555571
v  -0.707111 0.999419 -0.707103
v  -0.707106 -1.000581 -0.707108
v  -0.555575 0.999419 -0.831466
v  -0.555569 -1.000581 -0.831470
v  -0.382689 0.999419 -0.923877
v  -0.382682 -1.000581 -0.923880
v  -0.195097 0.999419 -0.980784
v  -0.195089 -1.000581 -0.980786
v  -0.000000 0.999419 0.000002
v  0.000000 -1.000581 -0.000000
# 66 vertices

vn 0.000000 0.000000 -0.999969
vn 0.195074 0.000000 -0.980773
vn 0.382672 0.000000 -0.923856
vn 0.555559 0.000000 -0.831446
vn 0.707083 0.000000 -0.707083
vn 0.831446 0.000000 -0.555559
vn 0.923856 0.000000 -0.382672
vn 0.980773 0.000000 -0.195074
vn 0.999969 0.000000 -0.000000
vn 0.980773 0.000000 0.195074
vn 0.923856 0.000000 0.382672
vn 0.831446 0.000000 0.555559
vn 0.707083 0.000000 0.707083
vn 0.555559 0.000000 0.831446
vn 0.382672 0.000000 0.923856
vn 0.195074 0.000000 0.980773
vn 0.000000 0.000000 1.000000
vn -0.195074 0.000000 0.980773
vn -0.382672 0.000000 0.923856
vn -0.555559 0.000000 0.831446
vn -0.707083 0.000000 0.707083
vn -0.831446 0.000000 0.555559
vn -0.923856 0.000000 0.382672
vn -0.980773 0.000000 0.195074
vn -1.000000 0.000000 -0.000000
vn -0.980773 0.000000 -0.195074
vn -0.923856 0.000000 -0.382672
vn -0.831446 0.000000 -0.555559
vn -0.707083 0.000000 -0.707083
vn -0.555559 0.000000 -0.831446
vn -0.382672 0.000000 -0.923856
vn -0.195074 0.000000 -0.980773
vn 0.000000 1.000000 -0.000000
vn 0.000000 -1.000000 -0.000000
# 34 vertex normals

vt 2.240672 -0.000043 0.000000
vt 2.240671 0.999957 0.000000
vt 2.124629 0.999957 0.000000
vt 2.124630 -0.000043 0.000000
vt 2.008586 0.999957 0.000000
vt 2.008587 -0.000043 0.000000
vt 1.892544 0.999957 0.000000
vt 1.892545 -0.000043 0.000000
vt 1.776502 0.999957 0.000000
vt 1.776503 -0.000043 0.000000
vt 1.660459 0.999957 0.000000
vt 1.660460 -0.000043 0.000000
vt 1.544417 0.999957 0.000000
vt 1.544418 -0.000043 0.000000
vt 1.428374 0.999957 0.000000
vt 1.428375 -0.000043 0.000000
vt 1.312332 0.999957 0.000000
vt 1.312333 -0.000043 0.000000
vt 1.196290 0.999958 0.000000
vt 1.196290 -0.000043 0.000000
vt 1.080248 0.999958 0.000000
vt 1.080248 -0.000043 0.000000
vt 0.964206 0.999958 0.000000
vt 0.964206 -0.000043 0.000000
vt 0.848163 0.999958 0.000000
vt 0.848163 -0.000043 0.000000
vt 0.732121 0.999958 0.000000
vt 0.732121 -0.000043 0.000000
vt 0.616079 0.999958 0.000000
vt 0.616079 -0.000043 0.000000
vt 0.500037 0.999958 0.000000
vt 0.500036 -0.000043 0.000000
vt 0.383995 0.999958 0.000000
vt 0.383994 -0.000043 0.000000
vt 0.267953 0.999958 0.000000
vt 0.267952 -0.000043 0.000000
vt 0.151911 0.999958 0.000000
vt 0.151909 -0.000043 0.000000
vt 0.035868 0.999958 0.000000
vt 0.035867 -0.000043 0.000000
vt -0.080174 0.999958 0.000000
vt -0.080175 -0.000043 0.000000
vt -0.196216 0.999958 0.000000
vt -0.196218 -0.000043 0.000000
vt -0.312258 0.999958 0.000000
vt -0.312260 -0.000043 0.000000
vt -0.428300 0.999958 0.000000
vt -0.428302 -0.000043 0.000000
vt -0.544343 0.999958 0.000000
vt -0.544345 -0.000043 0.000000
vt -0.660385 0.999958 0.000000
vt -0.660388 -0.000043 0.000000
vt -0.776427 0.999957 0.000000
vt -0.776430 -0.000043 0.000000
vt -0.892469 0.999957 0.000000
vt -0.892473 -0.000043 0.000000
vt -1.008511 0.999957 0.000000
vt -1.008515 -0.000043 0.000000
vt -1.124553 0.999957 0.000000
vt -1.124557 -0.000043 0.000000
vt -1.240595 0.999957 0.000000
vt -1.240600 -0.000043 0.000000
vt -1.356637 0.999957 0.000000
vt -1.356642 -0.000043 0.000000
vt 2.356714 -0.000043 0.000000
vt 2.356719 0.999957 0.000000
vt 0.558059 0.999957 0.000000
vt 0.442015 -0.000043 0.000000
# 68 texture coords

g default
f 1/1/1 2/2/1 3/3/2 
f 1/1/1 3/3/2 4/4/2 
f 4/4/2 3/3/2 5/5/3 
f 4/4/2 5/5/3 6/6/3 
f 6/6/3 5/5/3 7/7/4 
f 6/6/3 7/7/4 8/8/4 
f 8/8/4 7/7/4 9/9/5 
f 8/8/4 9/9/5 10/10/5 
f 10/10/5 9/9/5 11/11/6 
f 10/10/5 11/11/6 12/12/6 
f 12/12/6 11/11/6 13/13/7 
f 12/12/6 13/13/7 14/14/7 
f 14/14/7 13/13/7 15/15/8 
f 14/14/7 15/15/8 16/16/8 
f 16/16/8 15/15/8 17/17/9 
f 16/16/8 17/17/9 18/18/9 
f 18/18/9 17/17/9 19/19/10 
f 18/18/9 19/19/10 20/20/10 
f 20/20/10 19/19/10 21/21/11 
f 20/20/10 21/21/11 22/22/11 
f 22/22/11 21/21/11 23/23/12 
f 22/22/11 23/23/12 24/24/12 
f 24/24/12 23/23/12 25/25/13 
f 24/24/12 25/25/13 26/26/13 
f 26/26/13 25/25/13 27/27/14 
f 26/26/13 27/27/14 28/28/14 
f 28/28/14 27/27/14 29/29/15 
f 28/28/14 29/29/15 30/30/15 
f 30/30/15 29/29/15 31/31/16 
f 30/30/15 31/31/16 32/32/16 
f 32/32/16 31/31/16 33/33/17 
f 32/32/16 33/33/17 34/34/17 
f 34/34/17 33/33/17 35/35/18 
f 34/34/17 35/35/18 36/36/18 
f 36/36/18 35/35/18 37/37/19 
f 36/36/18 37/37/19 38/38/19 
f 38/38/19 37/37/19 39/39/20 
f 38/38/19 39/39/20 40/40/20 
f 40/40/20 39/39/20 41/41/21 
f 40/40/20 41/41/21 42/42/21 
f 42/42/21 41/41/21 43/43/22 
f 42/42/21 43/43/22 44/44/22 
f 44/44/22 43/43/22 45/45/23 
f 44/44/22 45/45/23 46/46/23 
f 46/46/23 45/45/23 47/47/24 
f 46/46/23 47/47/24 48/48/24 
f 48/48/24 47/47/24 49/49/25 
f 48/48/24 49/49/25 50/50/25 
f 50/50/25 49/49/25 51/51/26 
f 50/50/25 51/51/26 52/52/26 
f 52/52/26 51/51/26 53/53/27 
f 52/52/26 53/53/27 54/54/27 
f 54/54/27 53/53/27 55/55/28 
f 54/54/27 55/55/28 56/56/28 
f 56/56/28 55/55/28 57/57/29 
f 56/56/28 57/57/29 58/58/29 
f 58/58/29 57/57/29 59/59/30 
f 58/58/29 59/59/30 60/60/30 
f 60/60/30 59/59/30 61/61/31 
f 60/60/30 61/61/31 62/62/31 
f 62/62/31 61/61/31 63/63/32 
f 62/62/31 63/63/32 64/64/32 
f 2/2/1 1/1/1 64/65/32 
f 2/2/1 64/65/32 63/66/32 
f 3/3/33 2/2/33 65/67/33 
f 5/5/33 3/3/33 65/67/33 
f 7/7/33 5/5/33 65/67/33 
f 9/9/33 7/7/33 65/67/33 
f 11/11/33 9/9/33 65/67/33 
f 13/13/33 11/11/33 65/67/33 
f 15/15/33 13/13/33 65/67/33 
f 17/17/33 15/15/33 65/67/33 
f 19/19/33 17/17/33 65/67/33 
f 21/21/33 19/19/33 65/67/33 
f 23/23/33 21/21/33 65/67/33 
f 25/25/33 23/23/33 65/67/33 
f 27/27/33 25/25/33 65/67/33 
f 29/29/33 27/27/33 65/67/33 
f 31/31/33 29/29/33 65/67/33 
f 33/33/33 31/31/33 65/67/33 
f 35/35/33 33/33/33 65/67/33 
f 37/37/33 35/35/33 65/67/33 
f 39/39/33 37/37/33 65/67/33 
f 41/41/33 39/39/33 65/67/33 
f 43/43/33 41/41/33 65/67/33 
f 45/45/33 43/43/33 65/67/33 
f 47/47/33 45/45/33 65/67/33 
f 49/49/33 47/47/33 65/67/33 
f 51/51/33 49/49/33 65/67/33 
f 53/53/33 51/51/33 65/67/33 
f 55/55/33 53/53/33 65/67/33 
f 57/57/33 55/55/33 65/67/33 
f 59/59/33 57/57/33 65/67/33 
f 61/61/33 59/59/33 65/67/33 
f 63/63/33 61/61/33 65/63/33 
f 2/2/33 63/66/33 65/67/33 
f 1/1/34 4/4/34 66/68/34 
f 4/4/34 6/6/34 66/68/34 
f 6/6/34 8/8/34 66/68/34 
f 8/8/34 10/10/34 66/68/34 
f 10/10/34 12/12/34 66/68/34 
f 12/12/34 14/14/34 66/68/34 
f 14/14/34 16/16/34 66/68/34 
f 16/16/34 18/18/34 66/68/34 
f 18/18/34 20/20/34 66/68/34 
f 20/20/34 22/22/34 66/68/34 
f 22/22/34 24/24/34 66/68/34 
f 24/24/34 26/26/34 66/68/34 
f 26/26/34 28/28/34 66/68/34 
f 28/28/34 30/30/34 66/68/34 
f 30/30/34 32/32/34 66/68/34 
f 32/32/34 34/34/34 66/68/34 
f 34/34/34 36/36/34 66/68/34 
f 36/36/34 38/38/34 66/68/34 
f 38/38/34 40/40/34 66/68/34 
f 40/40/34 42/42/34 66/68/34 
f 42/42/34 44/44/34 66/68/34 
f 44/44/34 46/46/34 66/68/34 
f 46/46/34 48/48/34 66/68/34 
f 48/48/34 50/50/34 66/68/34 
f 50/50/34 52/52/34 66/68/34 
f 52/52/34 54/54/34 66/68/34 
f 54/54/34 56/56/34 66/68/34 
f 56/56/34 58/58/34 66/68/34 
f 58/58/34 60/60/34 66/68/34 
f 60/60/34 62/62/34 66/68/34 
f 62/62/34 64/64/34 66/68/34 
f 64/65/34 1/1/34 66/65/34 
# 128 faces

