# 3ds Max Wavefront OBJ Exporter v0.97b - (c)2007 guruware
# File Created: 21.04.2018 19:16:32

#
# object specular
#

v  0.000000 1.000000 -0.000000
v  -0.000000 0.809017 -0.587785
v  -0.345491 0.809017 -0.475528
v  -0.559017 0.809017 -0.181636
v  -0.559017 0.809017 0.181636
v  -0.345492 0.809017 0.475528
v  0.000000 0.809017 0.587785
v  0.345492 0.809017 0.475528
v  0.559017 0.809017 0.181635
v  0.559017 0.809017 -0.181636
v  0.345491 0.809017 -0.475529
v  -0.559017 0.309017 -0.769421
v  -0.000000 0.309017 -0.951057
v  -0.904508 0.309017 -0.293893
v  -0.904509 0.309017 0.293893
v  -0.559017 0.309017 0.769421
v  0.000000 0.309017 0.951057
v  0.559017 0.309017 0.769421
v  0.904509 0.309017 0.293892
v  0.904508 0.309017 -0.293893
v  0.559016 0.309017 -0.769421
# 21 vertices

vn -0.099903 0.946298 -0.307471
vn -0.261551 0.946299 -0.190028
vn -0.323294 0.946298 -0.000000
vn -0.261550 0.946299 0.190028
vn -0.099903 0.946298 0.307471
vn 0.099903 0.946299 0.307471
vn 0.261551 0.946298 0.190027
vn 0.323294 0.946299 -0.000000
vn 0.261550 0.946299 -0.190028
vn 0.099903 0.946299 -0.307471
vn -0.254229 0.568473 -0.782436
vn -0.665580 0.568473 -0.483572
vn -0.822702 0.568473 -0.000000
vn -0.665580 0.568473 0.483572
vn -0.254229 0.568473 0.782436
vn 0.254229 0.568473 0.782436
vn 0.665580 0.568473 0.483572
vn 0.822702 0.568473 -0.000000
vn 0.822702 0.568473 -0.000001
vn 0.665579 0.568473 -0.483573
vn 0.254228 0.568473 -0.782436
# 21 vertex normals

vt 0.000000 1.000000 0.000000
vt 0.000000 0.800000 0.000000
vt 0.100000 0.800000 0.000000
vt 0.100000 1.000000 0.000000
vt 0.200000 0.800000 0.000000
vt 0.200000 1.000000 0.000000
vt 0.300000 0.800000 0.000000
vt 0.300000 1.000000 0.000000
vt 0.400000 0.800000 0.000000
vt 0.400000 1.000000 0.000000
vt 0.500000 0.800000 0.000000
vt 0.500000 1.000000 0.000000
vt 0.600000 0.800000 0.000000
vt 0.600000 1.000000 0.000000
vt 0.700000 0.800000 0.000000
vt 0.700000 1.000000 0.000000
vt 0.800000 0.800000 0.000000
vt 0.800000 1.000000 0.000000
vt 0.900000 0.800000 0.000000
vt 0.900000 1.000000 0.000000
vt 1.000000 0.800000 0.000000
vt 0.100000 0.600000 0.000000
vt 0.000000 0.600000 0.000000
vt 0.200000 0.600000 0.000000
vt 0.300000 0.600000 0.000000
vt 0.400000 0.600000 0.000000
vt 0.500000 0.600000 0.000000
vt 0.600000 0.600000 0.000000
vt 0.700000 0.600000 0.000000
vt 0.800000 0.600000 0.000000
vt 0.900000 0.600000 0.000000
vt 1.000000 0.600000 0.000000
# 32 texture coords

g specular
f 1/1/1 2/2/1 3/3/1 
f 1/4/2 3/3/2 4/5/2 
f 1/6/3 4/5/3 5/7/3 
f 1/8/4 5/7/4 6/9/4 
f 1/10/5 6/9/5 7/11/5 
f 1/12/6 7/11/6 8/13/6 
f 1/14/7 8/13/7 9/15/7 
f 1/16/8 9/15/8 10/17/8 
f 1/18/9 10/17/9 11/19/9 
f 1/20/10 11/19/10 2/21/10 
f 12/22/11 3/3/11 2/2/11 
f 2/2/11 13/23/11 12/22/11 
f 14/24/12 4/5/12 3/3/12 
f 3/3/12 12/22/12 14/24/12 
f 15/25/13 5/7/13 4/5/13 
f 4/5/13 14/24/13 15/25/13 
f 16/26/14 6/9/14 5/7/14 
f 5/7/14 15/25/14 16/26/14 
f 17/27/15 7/11/15 6/9/15 
f 6/9/15 16/26/15 17/27/15 
f 18/28/16 8/13/16 7/11/16 
f 7/11/16 17/27/16 18/28/16 
f 19/29/17 9/15/17 8/13/17 
f 8/13/17 18/28/17 19/29/17 
f 20/30/18 10/17/18 9/15/18 
f 9/15/19 19/29/19 20/30/19 
f 21/31/20 11/19/20 10/17/20 
f 10/17/20 20/30/20 21/31/20 
f 13/32/21 2/21/21 11/19/21 
f 11/19/21 21/31/21 13/32/21 
# 30 faces

#
# object diffuse
#

v  -0.559017 -0.309017 -0.769421
v  -0.559017 0.309017 -0.769421
v  -0.000000 0.309017 -0.951057
v  -0.000000 -0.309017 -0.951056
v  -0.904508 -0.309017 -0.293893
v  -0.904508 0.309017 -0.293893
v  -0.904508 -0.309017 0.293893
v  -0.904509 0.309017 0.293893
v  -0.559017 -0.309017 0.769421
v  -0.559017 0.309017 0.769421
v  0.000000 -0.309017 0.951056
v  0.000000 0.309017 0.951057
v  0.559017 -0.309017 0.769421
v  0.559017 0.309017 0.769421
v  0.904509 -0.309017 0.293892
v  0.904509 0.309017 0.293892
v  0.904508 -0.309017 -0.293893
v  0.904508 0.309017 -0.293893
v  0.559016 -0.309017 -0.769421
v  0.559016 0.309017 -0.769421
v  -0.345491 -0.809017 -0.475528
v  -0.000000 -0.809017 -0.587785
v  -0.559017 -0.809017 -0.181636
v  -0.559017 -0.809017 0.181636
v  -0.345492 -0.809017 0.475528
v  0.000000 -0.809017 0.587785
v  0.345492 -0.809017 0.475528
v  0.559017 -0.809017 0.181635
v  0.559017 -0.809017 -0.181636
v  0.345491 -0.809017 -0.475529
v  0.000000 -1.000000 -0.000000
# 31 vertices

vn -0.309017 -0.000000 -0.951056
vn -0.809017 -0.000000 -0.587785
vn -1.000000 -0.000000 -0.000000
vn -0.809017 -0.000000 0.587785
vn -0.309017 -0.000000 0.951056
vn 0.309017 -0.000000 0.951056
vn 0.809017 -0.000000 0.587785
vn 1.000000 -0.000000 -0.000001
vn 0.809017 -0.000000 -0.587786
vn 0.309016 -0.000000 -0.951057
vn -0.254229 -0.568473 -0.782436
vn -0.665580 -0.568473 -0.483572
vn -0.822702 -0.568473 -0.000000
vn -0.665580 -0.568473 0.483572
vn -0.254229 -0.568473 0.782436
vn 0.254229 -0.568473 0.782436
vn 0.665580 -0.568473 0.483572
vn 0.822702 -0.568473 -0.000001
vn 0.822702 -0.568473 -0.000000
vn 0.665579 -0.568473 -0.483573
vn 0.254228 -0.568473 -0.782436
vn -0.099903 -0.946299 -0.307471
vn -0.261550 -0.946299 -0.190028
vn -0.323294 -0.946298 -0.000000
vn -0.261550 -0.946298 0.190027
vn -0.099903 -0.946298 0.307471
vn 0.099903 -0.946299 0.307471
vn 0.261551 -0.946298 0.190027
vn 0.323294 -0.946299 -0.000000
vn 0.261550 -0.946299 -0.190028
vn 0.099903 -0.946299 -0.307471
# 31 vertex normals

vt 0.100000 0.400000 0.000000
vt 0.100000 0.600000 0.000000
vt 0.000000 0.600000 0.000000
vt 0.000000 0.400000 0.000000
vt 0.200000 0.400000 0.000000
vt 0.200000 0.600000 0.000000
vt 0.300000 0.400000 0.000000
vt 0.300000 0.600000 0.000000
vt 0.400000 0.400000 0.000000
vt 0.400000 0.600000 0.000000
vt 0.500000 0.400000 0.000000
vt 0.500000 0.600000 0.000000
vt 0.600000 0.400000 0.000000
vt 0.600000 0.600000 0.000000
vt 0.700000 0.400000 0.000000
vt 0.700000 0.600000 0.000000
vt 0.800000 0.400000 0.000000
vt 0.800000 0.600000 0.000000
vt 0.900000 0.400000 0.000000
vt 0.900000 0.600000 0.000000
vt 1.000000 0.400000 0.000000
vt 1.000000 0.600000 0.000000
vt 0.100000 0.200000 0.000000
vt 0.000000 0.200000 0.000000
vt 0.200000 0.200000 0.000000
vt 0.300000 0.200000 0.000000
vt 0.400000 0.200000 0.000000
vt 0.500000 0.200000 0.000000
vt 0.600000 0.200000 0.000000
vt 0.700000 0.200000 0.000000
vt 0.800000 0.200000 0.000000
vt 0.900000 0.200000 0.000000
vt 1.000000 0.200000 0.000000
vt 0.000000 0.000000 0.000000
vt 0.100000 0.000000 0.000000
vt 0.200000 0.000000 0.000000
vt 0.300000 0.000000 0.000000
vt 0.400000 0.000000 0.000000
vt 0.500000 0.000000 0.000000
vt 0.600000 0.000000 0.000000
vt 0.700000 0.000000 0.000000
vt 0.800000 0.000000 0.000000
vt 0.900000 0.000000 0.000000
# 43 texture coords

g diffuse
f 22/33/22 23/34/22 24/35/22 
f 24/35/22 25/36/22 22/33/22 
f 26/37/23 27/38/23 23/34/23 
f 23/34/23 22/33/23 26/37/23 
f 28/39/24 29/40/24 27/38/24 
f 27/38/24 26/37/24 28/39/24 
f 30/41/25 31/42/25 29/40/25 
f 29/40/25 28/39/25 30/41/25 
f 32/43/26 33/44/26 31/42/26 
f 31/42/26 30/41/26 32/43/26 
f 34/45/27 35/46/27 33/44/27 
f 33/44/27 32/43/27 34/45/27 
f 36/47/28 37/48/28 35/46/28 
f 35/46/28 34/45/28 36/47/28 
f 38/49/29 39/50/29 37/48/29 
f 37/48/29 36/47/29 38/49/29 
f 40/51/30 41/52/30 39/50/30 
f 39/50/30 38/49/30 40/51/30 
f 25/53/31 24/54/31 41/52/31 
f 41/52/31 40/51/31 25/53/31 
f 42/55/32 22/33/32 25/36/32 
f 25/36/32 43/56/32 42/55/32 
f 44/57/33 26/37/33 22/33/33 
f 22/33/33 42/55/33 44/57/33 
f 45/58/34 28/39/34 26/37/34 
f 26/37/34 44/57/34 45/58/34 
f 46/59/35 30/41/35 28/39/35 
f 28/39/35 45/58/35 46/59/35 
f 47/60/36 32/43/36 30/41/36 
f 30/41/36 46/59/36 47/60/36 
f 48/61/37 34/45/37 32/43/37 
f 32/43/37 47/60/37 48/61/37 
f 49/62/38 36/47/38 34/45/38 
f 34/45/38 48/61/38 49/62/38 
f 50/63/39 38/49/39 36/47/39 
f 36/47/40 49/62/40 50/63/40 
f 51/64/41 40/51/41 38/49/41 
f 38/49/41 50/63/41 51/64/41 
f 43/65/42 25/53/42 40/51/42 
f 40/51/42 51/64/42 43/65/42 
f 52/66/43 42/55/43 43/56/43 
f 52/67/44 44/57/44 42/55/44 
f 52/68/45 45/58/45 44/57/45 
f 52/69/46 46/59/46 45/58/46 
f 52/70/47 47/60/47 46/59/47 
f 52/71/48 48/61/48 47/60/48 
f 52/72/49 49/62/49 48/61/49 
f 52/73/50 50/63/50 49/62/50 
f 52/74/51 51/64/51 50/63/51 
f 52/75/52 43/65/52 51/64/52 
# 50 faces

