# 3ds Max Wavefront OBJ Exporter v0.97b - (c)2007 guruware
# File Created: 25.05.2016 16:03:18

#
# object Box001
#

v  -0.500000 -0.500000 0.500000
v  0.500000 -0.500000 0.500000
v  0.500000 -0.500000 -0.500000
v  -0.500000 -0.500000 -0.500000
v  -0.500000 0.500000 0.500000
v  -0.500000 0.500000 -0.500000
v  0.500000 0.500000 -0.500000
v  0.500000 0.500000 0.500000
# 8 vertices

vn 0.000000 1.000000 -0.000000
vn 0.000000 -1.000000 -0.000000
vn 0.000000 0.000000 -1.000000
vn -1.000000 0.000000 -0.000000
vn 0.000000 0.000000 1.000000
vn 1.000000 0.000000 -0.000000
# 6 vertex normals

vt 1.000000 0.000000 0.000000
vt 0.000000 0.000000 0.000000
vt 0.000000 1.000000 0.000000
vt 1.000000 1.000000 0.000000
# 4 texture coords

g Box001
f 1/1/1 2/2/1 3/3/1 
f 3/3/1 4/4/1 1/1/1 
f 5/2/2 6/3/2 7/4/2 
f 7/4/2 8/1/2 5/2/2 
f 1/2/3 5/3/3 8/4/3 
f 8/4/3 2/1/3 1/2/3 
f 2/2/4 8/3/4 7/4/4 
f 7/4/4 3/1/4 2/2/4 
f 3/2/5 7/3/5 6/4/5 
f 6/4/5 4/1/5 3/2/5 
f 4/2/6 6/3/6 5/4/6 
f 5/4/6 1/1/6 4/2/6 
# 12 faces

